<svg viewBox="0 0 20 20" xmlns="http://www.w3.org/2000/svg"><g id="place_outline_20__Icons" stroke="none" stroke-width="1" fill="none" fill-rule="evenodd"><g id="place_outline_20__Icons-20/place_outline_20"><g id="place_outline_20__place_outline_20"><path opacity=".4" d="M0 0h20v20H0z"/><path d="M10 1c4.15 0 7.5 3.43 7.5 7.5 0 2.85-1.84 6.17-5.43 10.1a2.8 2.8 0 0 1-4.14 0C4.34 14.66 2.5 11.34 2.5 8.5 2.5 4.43 5.85 1 10 1Zm0 1.5c-3.38 0-6 2.83-6 6 0 2.38 1.68 5.41 5.04 9.08a1.3 1.3 0 0 0 1.92 0C14.32 13.91 16 10.88 16 8.5c0-3.17-2.62-6-6-6ZM10 5a3.5 3.5 0 1 1 0 7 3.5 3.5 0 0 1 0-7Zm0 1.5a2 2 0 1 0 0 4 2 2 0 0 0 0-4Z" id="place_outline_20__Icon-Color" fill="currentColor" fill-rule="nonzero"/></g></g></g></svg>