<svg xmlns:xlink="http://www.w3.org/1999/xlink" xmlns="http://www.w3.org/2000/svg" aria-hidden="true" display="block" class="vkuiIcon vkuiIcon--20 vkuiIcon--w-20 vkuiIcon--h-20 vkuiIcon--article_outline_20 ProfileFullBaseInfo__icon" viewBox="0 0 20 20" width="20" height="20" style="width: 20px; height: 20px;"><defs><symbol xmlns="http://www.w3.org/2000/svg" xmlns:xlink="http://www.w3.org/1999/xlink" viewBox="0 0 20 20" id="article_outline_20"><defs><path id="article_outline_20_a" d="M17.5 5.25a.75.75 0 0 0-.744-.75H3.244a.745.745 0 0 0-.744.75c0 .414.341.75.744.75h13.512c.411 0 .744-.333.744-.75m0 5a.75.75 0 0 0-.744-.75H3.244a.745.745 0 0 0-.744.75c0 .414.341.75.744.75h13.512c.411 0 .744-.333.744-.75m-15 5c0 .414.337.75.755.75h8.99a.75.75 0 0 0 .755-.75.75.75 0 0 0-.755-.75h-8.99a.75.75 0 0 0-.755.75"></path></defs><g fill="none" fill-rule="evenodd"><path d="M0 0h20v20H0z" fill="none"></path><use xlink:href="#article_outline_20_a" fill="#E1E3E6" fill-rule="nonzero"></use></g></symbol></defs><use xlink:href="#article_outline_20" style="" fill="#939393"></use></svg>