<svg width="19" height="19" viewBox="0 0 19 19" fill="none" xmlns="http://www.w3.org/2000/svg">
  <path fill-rule="evenodd" clip-rule="evenodd" d="M0 9.21475C0 3.92102 4.14913 0 9.5 0C14.8509 0 19 3.92339 19 9.21712C19 14.5108 14.8509 18.4319 9.5 18.4319C8.53813 18.4319 7.61663 18.3036 6.74975 18.0661C6.58112 18.021 6.40062 18.0329 6.2415 18.1041L4.35575 18.9354C4.24186 18.9856 4.11737 19.0071 3.99323 18.9979C3.86908 18.9888 3.74909 18.9493 3.64378 18.8829C3.53847 18.8166 3.45108 18.7254 3.38928 18.6173C3.32749 18.5092 3.29318 18.3877 3.28937 18.2632L3.23713 16.5723C3.23238 16.3633 3.13737 16.1686 2.983 16.0308C1.13525 14.3779 0 11.9839 0 9.21475ZM6.58588 7.48342L3.79526 11.9103C3.52688 12.3354 4.04938 12.8128 4.44838 12.5088L7.44563 10.2336C7.54425 10.1587 7.66458 10.1179 7.78842 10.1175C7.91226 10.1171 8.03287 10.157 8.13201 10.2312L10.3526 11.896C10.5101 12.0143 10.6905 12.0987 10.8822 12.1438C11.074 12.1889 11.273 12.1937 11.4667 12.158C11.6604 12.1223 11.8446 12.0468 12.0077 11.9363C12.1708 11.8258 12.3092 11.6827 12.4141 11.5161L15.2071 7.09156C15.4731 6.66644 14.9506 6.18671 14.5516 6.4907L11.5544 8.76589C11.4558 8.84079 11.3354 8.88154 11.2116 8.88196C11.0878 8.88239 10.9671 8.84248 10.868 8.76826L8.64738 7.10343C8.48988 6.98515 8.30956 6.9008 8.11781 6.85571C7.92606 6.81063 7.72704 6.80579 7.53333 6.84149C7.33961 6.8772 7.1554 6.95268 6.99233 7.06317C6.82926 7.17366 6.69086 7.31675 6.58588 7.48342Z" fill="#E4E7EA" fill-opacity="0.85"/>
</svg>