<svg xmlns:xlink="http://www.w3.org/1999/xlink" xmlns="http://www.w3.org/2000/svg" width="24" height="24" fill="#ffffff" viewBox="0 0 24 24"><path d="M17 13.5c3.69 0 6.9 1.31 6.9 4.26 0 1.55-.64 2.24-1.96 2.24h-5.6c-.54 0-.92-.55-.82-1.08.08-.38.4-.72.77-.72h5.79l.02-.44c0-1.52-2.32-2.46-5.1-2.46-.47 0-.93.03-1.37.08a.9.9 0 0 1-.85-.4c-.35-.51-.16-1.3.46-1.37A14.06 14.06 0 0 1 17 13.5Zm-10 0c3.69 0 6.9 1.31 6.9 4.26 0 1.55-.64 2.24-1.96 2.24H2.06C.74 20 .1 19.31.1 17.76.1 14.8 3.31 13.5 7 13.5Zm0 1.8c-2.78 0-5.1.94-5.1 2.46l.02.44h10.16l.02-.44c0-1.52-2.32-2.46-5.1-2.46ZM17 4.2a4.15 4.15 0 0 1 4.15 4.15A4.15 4.15 0 0 1 17 12.5a4.15 4.15 0 0 1-4.15-4.15A4.15 4.15 0 0 1 17 4.2Zm-10 0a4.15 4.15 0 0 1 4.15 4.15A4.15 4.15 0 0 1 7 12.5a4.15 4.15 0 0 1-4.15-4.15A4.15 4.15 0 0 1 7 4.2ZM17 6a2.35 2.35 0 1 0 0 4.7A2.35 2.35 0 1 0 17 6ZM7 6a2.35 2.35 0 1 0 0 4.7A2.35 2.35 0 1 0 7 6Z" fill="#ffffff"/></svg>