<svg xmlns:xlink="http://www.w3.org/1999/xlink" xmlns="http://www.w3.org/2000/svg" width="24" height="24" fill="currentColor" viewBox="0 0 24 24"><path d="M14.85 7.95A2.85 2.85 0 0 0 12 5.1a2.85 2.85 0 0 0-2.85 2.85A2.85 2.85 0 0 0 12 10.8a2.85 2.85 0 0 0 2.85-2.85Zm1.8 0A4.65 4.65 0 0 1 12 12.6a4.65 4.65 0 0 1-4.65-4.65A4.65 4.65 0 0 1 12 3.3a4.65 4.65 0 0 1 4.65 4.65ZM5.9 18.43c0 .77-.09.67.34.67h11.52c.43 0 .34.1.34-.67 0-1.9-2.78-3.03-6.1-3.03s-6.1 1.14-6.1 3.03Zm-1.8 0c0-3.33 3.67-4.83 7.9-4.83s7.9 1.5 7.9 4.83c0 1.73-.69 2.47-2.13 2.47H6.23c-1.45 0-2.13-.74-2.13-2.47Z" fill="#529EF4"></path></svg>