<svg xmlns:xlink="http://www.w3.org/1999/xlink" width="20" height="20" viewBox="0 0 20 20" fill="none" xmlns="http://www.w3.org/2000/svg"><path fill-rule="evenodd" clip-rule="evenodd" d="M10 9.25a.75.75 0 0 1 .75.75v4a.75.75 0 0 1-1.5 0v-4a.75.75 0 0 1 .75-.75z" fill="#71AAEB"></path><path d="M11 7a1 1 0 1 1-2 0 1 1 0 0 1 2 0z" fill="#71AAEB"></path><path fill-rule="evenodd" clip-rule="evenodd" d="M3.99 3.99A8.48 8.48 0 0 1 10 1.5c2.35 0 4.47.95 6.01 2.49A8.48 8.48 0 0 1 18.5 10a8.48 8.48 0 0 1-2.49 6.01A8.48 8.48 0 0 1 10 18.5a8.48 8.48 0 0 1-6.01-2.49A8.48 8.48 0 0 1 1.5 10c0-2.35.95-4.47 2.49-6.01zM10 3a6.98 6.98 0 0 0-4.95 2.05A6.98 6.98 0 0 0 3 10c0 1.93.78 3.68 2.05 4.95A6.98 6.98 0 0 0 10 17a6.97 6.97 0 0 0 4.95-2.05A6.97 6.97 0 0 0 17 10a6.98 6.98 0 0 0-2.05-4.95A6.98 6.98 0 0 0 10 3z" fill="#71AAEB"></path></svg>