<svg width="18" height="18" viewBox="0 0 18 18" fill="none" xmlns="http://www.w3.org/2000/svg">
  <path d="M0 7.1511C0 11.0956 3.23582 14.3022 7.21631 14.3022C9.6668 14.3022 12.441 14.3316 14.1816 16.0565L15.266 17.131C15.5142 17.3858 15.8599 17.5 16.2057 17.5C16.9592 17.5 17.5 16.9377 17.5 16.2086C17.5 15.8572 17.3759 15.5321 17.1365 15.2861L16.2068 14.3628C14.4119 12.5803 14.4326 9.68076 14.4326 7.1511C14.4326 3.20658 11.1968 0 7.21631 0C3.23582 0 0 3.20658 0 7.1511ZM1.87943 7.1511C1.87943 4.23444 4.26418 1.86245 7.21631 1.86245C10.1596 1.86245 12.5532 4.23444 12.5532 7.1511C12.5532 10.0678 10.1596 12.4398 7.21631 12.4398C4.26418 12.4398 1.87943 10.0678 1.87943 7.1511Z" fill="#646464"/>
  </svg>